/* XPM */
static char *_5060b4a30134c5de8acaef47156f6fdKnUbauzQmQEuO3Wb[] = {
/* columns rows colors chars-per-pixel */
"40 40 12 1 ",
"  c black",
". c gray1",
"X c gray4",
"o c #0E0E0E",
"O c gray6",
"+ c #191919",
"@ c gray90",
"# c #EFEFEF",
"$ c gray94",
"% c #F4F4F4",
"& c #FBFBFB",
"* c white",
/* pixels */
"    o$***$o   o$***#o   o$***$o   o$****",
"    o$***$o   o$***$o   o$*&*#o   o$****",
"    o$*&*$o   o$***$o   o$***$o   o$****",
"    X$***%X   X%***%o   X%***%X   X%****",
"oooX+@%$%@+XoX+@$#$@+ooX+@%$%@+XoX+@%$$$",
"$$$$@+XoX+@%$%@+XoX+@$#%@+XoX+@%#%@+Xooo",
"****$o   X%***%X   o%***%X   X%***%o    ",
"****$O   o#*&*$o   O$*&*$O   o#*&*$o    ",
"****%X   X%***%X   X%***%X   X%***%X    ",
"#$$%@+XoX+@%$%@+XoX+@%#%@+XoX+@%$%@+Xooo",
"oooX+@%#%@+XoX+@%$%@+XOX+@%#%@+XoX+@%$$$",
"    X%***%X   X%***%X   X%***%X   o%****",
"    o$*&*#o   o#*&*#o . o#*&*#o   O$*&**",
"    X%***%X   o$***%X   X%***%X   o$****",
"oooX+@%$%@+XOo+@%$%@+XoX+@%$%@+XoX+@$$$$",
"$$$%@+XOX+@%$%@+XoX+@%$%@+XoX+@%$%@+Xooo",
"****$o   X%***%X   o%***%X   o$***%X    ",
"*&**$O   o#*&*$o   o#*&*$o   O#*&*#o    ",
"****%o   X%***%X   X%***%X   X%***$o    ",
"$#$$@+XoX+@%#%@+XoX+@%#$@+XoX+@%$%@+oooo",
"oooX+@%#%@+XOo+@%$%@+XOo+@%#%@+XOo+@%$$#",
"    X%***%X   X%***%X   X%***%X   X$****",
"    o$*&*$o   o$*&*#o   o$*&*$o   o#****",
"    X%***%X   X%***%X   X%***%X   X$****",
"oooX+@%$%@+XoX+@%$%@+XoX+@$$%@+XoX+@%$$$",
"$$$$@+XoX+@%$%@+XoX+@%$%@+oOo+@$#%@+Xooo",
"****%X   X%***%X   X%***%X   X%***%X    ",
"**&*$O . o#*&*#o   o#*&*#o   o#*&*$o    ",
"****%X   X%***%X   X%***%X   X%***%X    ",
"$$$%@+XoX+@%#%@+ooX+@%#%@+XoX+@%#%@+Xooo",
"oooX+@%$%@+XoX+@%#%@+XoX+@%#%@+XoX+@%$#$",
"    X%***%X   X%***%X   X%***%X   X%****",
"    o$*&*#o   O$*&*#o   O$*&*#o   O$**&*",
"    o$***%X   o%***%X   o%***%X   o%****",
"oooX+@%$%@+Xoo+@%$%@+XoX+@%#%@+Xoo+@%$$$",
"$$$%@+oOX+@%#$@+XOX+@%$%@+XoX+@%#$@+Xooo",
"****$X   X%***$X   X%***%X   o%***$o    ",
"**&*$o   o$***$o   o$*&*$o   o$***#o    ",
"****$o   o$***$o   o$*&*$o   o$*&*#o    ",
"****$o   o#***$o   o$***$o   o$***$o    "
};
