/* XPM */
static char *_fea988043dc46cbc394fad1436c1627Vgk1m2Ed5hoa3t2s[] = {
/* columns rows colors chars-per-pixel */
"40 40 136 2 ",
"   c black",
".  c gray1",
"X  c #050303",
"o  c #000606",
"O  c #0E0000",
"+  c #0A0707",
"@  c #010808",
"#  c #030C0C",
"$  c #040D0D",
"%  c #0B0808",
"&  c gray4",
"*  c #0E0E0E",
"=  c #1A0303",
"-  c #1E0606",
";  c #120E0E",
":  c #0C1414",
">  c #0A1818",
",  c #0F1919",
"<  c #131010",
"1  c #1A1717",
"2  c gray10",
"3  c #1C1A1A",
"4  c #191D1D",
"5  c #240707",
"6  c #250808",
"7  c #340909",
"8  c #3E0B0B",
"9  c #221515",
"0  c #231B1B",
"q  c #261C1C",
"w  c #381616",
"e  c #152323",
"r  c #1A2727",
"t  c #400909",
"y  c #4F0A0A",
"u  c #5B0E0E",
"i  c #4B1414",
"p  c #541818",
"a  c #571C1C",
"s  c #6F1B1B",
"d  c #622626",
"f  c #772525",
"g  c #821515",
"h  c #9B1B1B",
"j  c #9C1D1D",
"k  c #A51F1F",
"l  c #AB1E1E",
"z  c #A72121",
"x  c #A72424",
"c  c #AF2525",
"v  c #AA2C2C",
"b  c #BA2525",
"n  c #C62222",
"m  c #C82727",
"M  c #D62525",
"N  c #DB2626",
"B  c #D42A2A",
"V  c #DE2929",
"C  c #D93131",
"Z  c #E82D2D",
"A  c #FD2222",
"S  c #FF2323",
"D  c #FB2727",
"F  c #FF2727",
"G  c #F22C2C",
"H  c #FF2929",
"J  c #F82E2E",
"K  c #FF2C2C",
"L  c #FD2F2F",
"P  c #F63131",
"I  c #F13737",
"U  c #FB3131",
"Y  c #FE3131",
"T  c #FE3434",
"R  c #FF3535",
"E  c #F63E3E",
"W  c #FB3838",
"Q  c #FF4343",
"!  c #FF4747",
"~  c #FF5757",
"^  c #FD5E5E",
"/  c #EF6060",
"(  c #FA6767",
")  c #FF6F6F",
"_  c #F07E7E",
"`  c #FA7B7B",
"'  c #FF7979",
"]  c #E88282",
"[  c #FC8686",
"{  c #FB8989",
"}  c #F59898",
"|  c #F4A7A7",
" . c #F9A9A9",
".. c #FFA8A8",
"X. c #F2B2B2",
"o. c #F6B2B2",
"O. c #FFB3B3",
"+. c #F0C3C3",
"@. c #FEC7C7",
"#. c #F0CFCF",
"$. c #FFCFCF",
"%. c #E6D4D4",
"&. c #F0D1D1",
"*. c #FFDCDC",
"=. c #D7E2E2",
"-. c #E5E2E2",
";. c #E2E4E4",
":. c #E4E4E4",
">. c gray90",
",. c #E2E9E9",
"<. c #E3EEEE",
"1. c #EFECEC",
"2. c #EFEFEF",
"3. c #F1E1E1",
"4. c #F0EFEF",
"5. c #FEE8E8",
"6. c #FFEFEF",
"7. c #E4F0F0",
"8. c #E6F1F1",
"9. c #EFF0F0",
"0. c #EFF6F6",
"q. c #ECF9F9",
"w. c #EEFAFA",
"e. c #EFFDFD",
"r. c gray94",
"t. c #F5F3F3",
"y. c #F4F4F4",
"u. c #F4F5F5",
"i. c #FDF1F1",
"p. c #F8F5F5",
"a. c #F4FFFF",
"s. c #F5FFFF",
"d. c #FBFBFB",
"f. c #FCF9F9",
"g. c #FBFFFF",
"h. c white",
/* pixels */
"        * r.h.h.h.r.*       * r.h.h.h.2.*       * r.h.h.h.r.*       * r.h.h.h.h.",
"        * r.h.h.h.r.*       * r.h.h.h.r.*       * r.h.d.h.2.*       * r.h.h.h.h.",
"        * r.h.d.h.r.*       < 9.h.h.h.9.*       * r.h.h.h.r.*       * 9.h.h.h.h.",
"        & r.h.h.h.y.&       & y.h.h.h.y.*       & y.h.h.h.y.&       & y.h.h.h.h.",
"* * * & 2 >.y.2.r.>.2 & < & 2 >.r.2.y.;.2 & * & 3 ;.y.r.y.>.2 & * & 2 >.y.r.r.r.",
"r.r.4.4.>.2 & * & 2 -.y.2.2.>.2 & * & 2 >.9.2.y.>.3 & < & 2 >.r.2.y.>.2 & * * * ",
"h.h.h.h.t.&       * a.h.h.h.t.&       * y.h.h.h.9.&       & y.h.h.h.y.&         ",
"h.h.h.h.4.:     6 B  .h.g.h.2.*       < r.h.d.h.9.<       * 2.h.d.h.9.<         ",
"h.h.h.h.9.&     O G H ^ @.h.w.&       & y.h.h.h.y.&       & y.h.h.h.y.&         ",
"2.r.r.y.>.2 & ; # x R D H ' #.r * & & 2 >.y.2.y.;.3 & * & 2 >.y.9.y.>.2 & * * * ",
"* * * & 2 >.t.4.e.o.K R Y S U _ 3.a.y.-.2 & * & 3 ,.y.2.y.>.2 & * & 2 >.y.r.r.r.",
"        & y.h.h.h.i.I K Y R K H ! ..h.a.&       & 9.h.h.h.y.&       & y.h.h.h.h.",
"        < 9.h.d.h.<.v Y U Y Y R H A ~ X.:   X   * 4.h.f.h.2.*       < 9.h.d.h.h.",
"        & y.h.h.h.8.p H Y Y Y Y Y R D K b 7     + t.h.h.h.y.&       & y.h.h.h.h.",
"* * * & 2 ;.y.r.t.;.0 V Y K Y Y Y Y Y Y Y Y j - e >.p.4.t.>.2 & * & 2 >.r.r.r.r.",
"r.r.r.y.>.2 & * & 1 8.[ S R Y Y Y Y Y Y Y Y Y W ] q o : & 2 >.y.2.y.>.2 & * * * ",
"h.h.h.h.y.&       + a.$.H Y Y Y Y Y Y Y Y Y Y K H N u     & t.h.h.h.y.&         ",
"h.d.h.h.9.<       * 9.h.~ H Y Y Y Y Y Y K Y Y Y Y R R m t $ 0.h.d.h.2.*         ",
"h.h.h.h.y.&       & 9.h.{ H R Y Y Y Y Y Y Y Y Y Y Y U Y Y c &.h.h.h.r.&         ",
"r.2.r.r.>.2 & * & 2 -.a.+.H Y Y Y Y Y Y Y Y Y Y Y Y Y U Y R Y O.w.y.>.3 * * * * ",
"* * * & 2 >.y.2.t.>.3 o a Y Y Y Y Y Y Y Y Y Y Y Y Y Y Y H S M 8 $ & 3 >.y.4.r.4.",
"        & y.h.h.h.y.&   j R U K Y Y Y Y Y K Y Y Y Y Y A ! } <       * y.h.h.h.h.",
"        * 2.h.d.h.4.: O Z Y Y Y Y Y Y Y Y Y Y Y Y S Y [ 6.a.*       * 9.h.h.h.h.",
"        & t.h.h.h.p.o y R K Y Y Y Y Y Y Y Y Y Y H ) *.h.h.y.&       & r.h.h.h.h.",
"* * * & 2 >.y.2.y.;., k Y Y Y Y Y Y Y K R H H C d ,.a.2.t.-.2 & * & 2 >.r.r.4.r.",
"r.r.r.r.>.2 & * & 3 %.! K Y K Y Y Y U Y S Q ..y.=.3 & * & 1 >.r.2.y.>.2 & < * : ",
"h.h.h.h.y.*       > | H Y Y Y Y K U R J { i.h.h.y.&       & y.h.h.h.y.&         ",
"h.h.d.h.2.<       : / H Y Y Y U Y R l w w.h.f.h.9.:   X   * 2.h.d.h.2.*         ",
"h.h.h.h.y.&       = P Y Y U K Y n 8   @ y.h.h.h.y.&       & y.h.h.h.y.&         ",
"r.r.r.y.>.2 & ; @ s Y U Y Y E f * # & 3 ;.y.2.t.>.2 & * & 2 >.y.2.y.>.2 & * * * ",
"* * * & 2 >.y.r.0.( H R P g 9 =.y.r.t.>.2 & < & 2 >.y.2.y.>.2 & * & 2 >.y.r.2.r.",
"        & y.h.h.6.K K z 5   & p.h.h.h.y.&       & r.h.h.h.y.&       & y.h.h.h.h.",
"        : 2.h.g.5.` i       * r.h.d.h.9.*       < 9.h.d.h.2.*       < r.h.h.d.h.",
"        & y.h.h.h.a.@       & y.h.h.h.y.&       & y.h.h.h.y.&       & y.h.h.h.h.",
"* * < & 3 ;.y.r.t.-.2 & < & 2 >.y.9.y.>.2 * * & 2 >.y.9.r.>.2 & < & 3 ;.y.r.r.r.",
"r.r.9.y.>.3 & < & 2 -.y.9.r.>.2 & * & 2 >.r.2.y.>.2 & * & 2 >.y.9.9.>.3 & * * * ",
"h.h.h.h.r.&       & y.h.h.h.r.&       & t.h.h.h.r.&       < y.h.h.h.y.&         ",
"h.h.d.h.r.*       * r.h.g.h.4.:       < 9.h.f.h.r.*       * r.h.g.h.9.*         ",
"h.h.h.h.r.*       * r.h.h.h.4.;       * r.h.g.h.r.*       * r.h.d.h.4.*         ",
"h.h.h.h.r.*       * 4.h.f.h.4.*       * r.h.h.h.r.*       * r.h.h.h.r.*         "
};
