/* XPM */
static char *_ecd5f4489b342aff988ce9a51e867751VAyWU4CpjKd06Bu[] = {
/* columns rows colors chars-per-pixel */
"40 40 26 1 ",
"  c black",
". c #040606",
"X c #070909",
"o c #090B0B",
"O c #0B0D0D",
"+ c #0C0E0E",
"@ c #222424",
"# c #232424",
"$ c #2C2E2E",
"% c #2D2E2E",
"& c #2F3131",
"* c #3C3E3E",
"= c #3F4141",
"- c #404141",
"; c #434444",
": c #434545",
"> c #484A4A",
", c #4B4C4C",
"< c #4D4E4E",
"1 c #5D5E5E",
"2 c #646565",
"3 c #7A7B7B",
"4 c #8E8F8F",
"5 c gray97",
"6 c #F9F9F9",
"7 c white",
/* pixels */
"..X 275$ o 275$ o >77> .................",
"..X 275$ o 275$ X >77> X................",
"..X 275$ o 275$ o >77, OoXXXXXXXXXXXXXXX",
"..X 275$ o 275$ X >77*                  ",
"..X 275$ o 275$ o >774122222222222222222",
"..X 275$ o 275$ o >777777777777777777777",
"..X 275$ o 275$ X >776555555555555555555",
"..X 275$ o 275$ o >772#&$$$$$$$$$$$$$$$$",
"..X 275$ o 275$ o >77;                  ",
"..X 275$ o 275$ X >77< +oooooooooooooooo",
"..X 275$ o 275$ o >77*                  ",
"..X 275$ o 275$ o >774122222222222222222",
"..X 275$ o 275$ X >777777777777777777777",
"..X 275$ o 275$ o >776555555555555555555",
"..X 275$ o 275$ o >772#&$$$$$$$$$$$$$$$$",
"..X 275$ o 275$ o >77;                  ",
".XO 275& + 275& O ,77, OoXooooXoooXoXooX",
"    175#   176#   =77=                  ",
">>,*4762;<*4762;,=3773=,>>>>>>>>>>>>>>>>",
"7777777777777777777777777777777777777777",
"7777777777777777777777777777777777777777",
">>>>>>>>>>>>,>>>,=3773-<=3773-<;2674*<>>",
"                  =77-   =77=   #571    ",
"oooooooooooooooo+ <77> + ,77, O &572 O.X",
"                  =77> o >77> o $572 X..",
">>>>>>>>>>>>>>>>,=377> o >77> o $572 X..",
"777777777777777777777> o >77> X $572 X..",
"777777777777777777777> o >77> o $572 X..",
">>>>>>>>>>>>>>>>,-377> o >77> o $572 X..",
"                  =77> o >77> o $572 X..",
"oooXoooooXoooooo+ <77> o >77> X $572 X..",
"                  -77> o >77> o $572 X..",
"$$$$$$$$$$$$$$$$&#277> o >77> o $572 X..",
"555555555556555555677> o >77> X $572 X..",
"777777777777777777777> o >77> o $572 X..",
"222222222222222221477> o >77> X $572 X..",
"                  *77> o >77> X $572 X..",
"XoXXXXXXXXXXoXXXO ,77> o >77> o $572 X..",
"................. >77> o >77> o $572 X..",
"................X >77> o >77> X $572 X.."
};
